Coordinates
version=1
nRows=17
nColumns=36
inDegrees=yes

Units are S.I. units (second, meters, Newtons, ...)
If the header above contains a line with 'inDegrees', this indicates whether rotational values are in degrees (yes) or radians (no).

endheader
time	pelvis_tilt	pelvis_list	pelvis_rotation	pelvis_tx	pelvis_ty	pelvis_tz	hip_flexion_r	hip_adduction_r	hip_rotation_r	knee_angle_r	knee_angle_r_beta	ankle_angle_r	subtalar_angle_r	mtp_angle_r	hip_flexion_l	hip_adduction_l	hip_rotation_l	knee_angle_l	knee_angle_l_beta	ankle_angle_l	subtalar_angle_l	mtp_angle_l	lumbar_extension	lumbar_bending	lumbar_rotation	arm_flex_r	arm_add_r	arm_rot_r	elbow_flex_r	pro_sup_r	arm_flex_l	arm_add_l	arm_rot_l	elbow_flex_l	pro_sup_l
     10.30000000	    -25.77069554	     -1.30948116	      8.83425684	      1.55960493	      0.77333474	      0.09838273	     63.74886759	      2.62662293	     -2.24814560	     66.14634248	      1.15447146	     33.46554516	      1.90131753	     -7.49999987	     79.15561390	    -11.26480054	      8.24458811	     37.32219475	      0.65139518	     -2.21074741	    -12.60923258	     -7.49999987	     -2.76255215	     10.64128502	      4.77392562	     52.39743560	    -11.58362200	     71.81067236	    121.15013209	     98.96563546	     57.29185562	      4.79467259	     70.07604135	    107.54017759	    111.05463317
     10.31666670	    -26.05261952	     -1.38233135	      8.73406789	      1.55658197	      0.77197788	      0.10152446	     64.30309497	      2.68684752	     -2.34850715	     66.32743068	      1.15763205	     33.45790621	      1.86733744	     -7.49999987	     79.51844714	    -11.35122410	      8.39904122	     37.29363793	      0.65089677	     -2.48417511	    -12.38124277	     -7.49999987	     -3.26602167	     10.58053472	      5.00557616	     52.42053516	    -11.39429391	     71.79521866	    121.07674199	     99.00967539	     57.45308448	      4.57958965	     69.90905547	    107.34183693	    111.02508762
     10.33333330	    -26.83875313	     -1.53101497	      8.54239207	      1.55592926	      0.76880343	      0.10211917	     65.53148726	      2.87329761	     -2.41185395	     66.67800641	      1.16375075	     33.44547911	      1.82432052	     -7.49999987	     80.51695746	    -11.52923503	      8.50888039	     37.46480454	      0.65388419	     -2.79574892	    -12.29263231	     -7.49999987	     -2.89397116	     10.64369217	      5.38769198	     52.13170738	    -11.52513388	     71.60099624	    120.85125500	     99.80019691	     57.04484491	      4.84321371	     69.54775353	    106.55988713	    110.87559543
     10.35000000	    -27.41948702	     -1.63968124	      8.38052131	      1.55611158	      0.76740858	      0.10214967	     66.41388818	      2.95113339	     -2.50605944	     66.91513701	      1.16788946	     33.48891566	      1.78999186	     -7.49999987	     81.20283968	    -11.64630166	      8.69081048	     37.54846082	      0.65534427	     -3.02301817	    -12.22410727	     -7.49999987	     -2.64015322	     10.88203916	      5.48457364	     51.95247845	    -11.21515822	     72.12190894	    120.78687514	    101.48438871	     56.52480212	      4.72833009	     69.32903514	    106.42889652	    110.53728276
     10.36666670	    -27.52981322	     -1.67602272	      8.31826170	      1.55231903	      0.76683477	      0.10550971	     66.88680903	      2.98725158	     -2.65970745	     67.21327886	      1.17309302	     33.44331486	      1.75800974	     -7.49999987	     81.49687515	    -11.73522957	      8.82844495	     37.66405764	      0.65736182	     -3.26136578	    -12.09936301	     -7.49999987	     -3.21454484	     10.87160335	      5.75245462	     51.88283816	    -11.07741358	     72.15909586	    120.67415591	    101.48668317	     56.40785872	      4.50711562	     69.37001321	    106.26278341	    110.53764439
     10.38333330	    -27.65425959	     -1.69516898	      8.21917650	      1.55565292	      0.76508644	      0.10252384	     67.26330061	      3.04688457	     -2.66357309	     67.49792206	      1.17806098	     33.45351153	      1.71305099	     -7.49999987	     81.78274052	    -11.80383040	      8.94824169	     37.81881708	      0.66006288	     -3.32867574	    -12.10314075	     -7.49999987	     -3.69718632	     11.03814560	      5.89039724	     51.56462665	    -11.20324225	     72.40732876	    120.45035562	    101.51147955	     55.79995936	      4.47986396	     69.76523263	    106.31247380	    110.56385272
     10.40000000	    -27.86096906	     -1.64670934	      8.17229819	      1.55162826	      0.76384399	      0.10527738	     67.58621041	      3.00498526	     -2.70328961	     67.51002395	      1.17827220	     33.48599465	      1.68738726	     -7.49999987	     82.05991881	    -11.80535006	      8.99654475	     37.84131688	      0.66045557	     -3.34704868	    -12.10094242	     -7.49999987	     -4.10173981	     11.10151732	      5.95015918	     51.64663037	    -11.26248323	     72.39937848	    120.35920559	    101.51269979	     55.71211698	      4.49095245	     69.84262961	    106.28577797	    110.57143967
     10.41666670	    -28.82045199	     -1.90298215	      7.87868568	      1.55046703	      0.76118140	      0.10022063	     68.95150669	      3.07887436	     -2.87050190	     67.86757387	      1.18451262	     33.46039144	      1.77767851	     -7.49999987	     83.43317031	    -11.95229628	      9.22980863	     38.14984114	      0.66584034	     -3.38989050	    -12.13823979	     -7.49999987	     -3.44943886	     11.69612621	      6.39048191	     52.03080094	    -11.97255367	     73.10528120	    120.39092831	    101.51848258	     55.33650461	      4.88846463	     69.91988548	    106.13698108	    110.68975041
     10.43333330	    -29.02504321	     -1.92002781	      7.86318761	      1.54672348	      0.75880202	      0.10393976	     69.60843369	      2.96417645	     -2.97206734	     68.33031493	      1.19258897	     33.35790315	      1.80000569	     -7.49999987	     84.01096606	    -11.93292833	      9.39774791	     38.31970688	      0.66880505	     -3.43351974	    -12.09690738	     -7.49999987	     -3.88629977	     11.86750597	      6.72348832	     52.72802544	    -11.96543938	     72.94527487	    120.21649028	    101.48946943	     55.51458768	      5.03928768	     69.83257611	    105.95172090	    110.70157841
     10.45000000	    -29.50276587	     -2.04465870	      7.72196665	      1.55001750	      0.75993416	      0.10013626	     70.12681257	      2.94413570	     -3.05057843	     68.37274468	      1.19332951	     33.44817740	      1.99171670	     -7.49999987	     84.56822896	    -11.94817596	      9.67077418	     38.18933057	      0.66652956	     -3.37556384	    -12.16789721	     -7.49999987	     -3.92448298	     12.36400352	      7.04002232	     53.04647292	    -12.34510023	     74.22951080	    120.31044772	    101.44765145	     55.31092183	      5.47971644	     69.89842321	    105.38804975	    110.76252107
     10.46666670	    -29.71764373	     -2.00824119	      7.66526945	      1.54958769	      0.75785907	      0.10066960	     70.51168588	      2.83727724	     -3.04297288	     68.59645343	      1.19723397	     33.54671151	      2.25299958	     -7.49999987	     84.91402204	    -11.96667694	      9.76062980	     38.10918875	      0.66513082	     -3.67671052	    -12.36403159	     -7.49999987	     -4.08649607	     12.67384930	      7.12247646	     52.98474543	    -12.33170809	     74.64551929	    120.38594287	    100.01345414	     55.04193086	      5.17092211	     69.14991262	    105.49094437	    109.90468652
     10.48333330	    -29.75264183	     -2.25262486	      7.55381961	      1.54633732	      0.75656730	      0.10397930	     70.75976324	      3.01932458	     -3.28440874	     68.71717769	      1.19934100	     33.44112047	      2.26283791	     -7.49999987	     85.28978960	    -12.22440879	     10.06026846	     38.06988163	      0.66444478	     -3.71841482	    -11.85521033	     -7.49999987	     -4.60353507	     13.25748381	      7.41031522	     53.53732830	    -12.30398715	     75.22655820	    119.99288938	     98.70330164	     55.44539441	      4.83353137	     69.32957531	    105.96416256	    111.08880807
     10.50000000	    -29.88993908	     -2.18344779	      7.43832618	      1.54512135	      0.75220477	      0.09995593	     71.25408001	      2.89539275	     -3.33853081	     69.18789533	      1.20755658	     33.48960080	      2.38347227	     -7.49999987	     85.63146229	    -12.31012584	     10.09671535	     38.10899170	      0.66512738	     -4.02844773	    -11.73668394	     -7.49999987	     -5.00021742	     13.55228279	      7.50158171	     54.27969926	    -12.89754677	     75.22915016	    119.79404398	     98.74019939	     55.70844779	      4.95626178	     69.09978559	    105.79192109	    111.08368711
     10.51666670	    -29.91909854	     -2.33045932	      7.40919572	      1.54657341	      0.74724602	      0.10507285	     71.64128280	      2.94498195	     -3.63302935	     69.66369968	      1.21586093	     33.66515421	      2.61904048	     -7.49999987	     86.07901265	    -12.50046696	     10.45959718	     38.30096965	      0.66847803	     -4.38359967	    -11.66200312	     -7.49999987	     -5.39623520	     13.80146622	      7.87779394	     54.51472532	    -12.89246292	     75.67581160	    119.61054833	     98.80110208	     55.33009856	      5.14259226	     69.62038704	    105.69777167	    111.12796744
     10.53333330	    -30.39951647	     -2.63536192	      7.32956532	      1.54459894	      0.74656650	      0.09985147	     72.35509439	      2.83217048	     -4.18134840	     69.90611214	      1.22009182	     33.91538512	      2.95874089	     -7.49999987	     86.87560701	    -12.54224274	     10.97986074	     38.35210205	      0.66937046	     -4.82786841	    -11.81443220	     -7.49999987	     -5.27655875	     14.45940287	      7.91985486	     55.35811552	    -13.42645206	     76.83514766	    119.80077942	     98.91556150	     55.34581282	      5.23810459	     69.44767592	    104.62832937	    111.16792452
     10.55000000	    -30.59133428	     -2.76754234	      7.25315313	      1.54451353	      0.74638405	      0.09974198	     72.45131260	      2.79083300	     -4.39552579	     69.81752656	      1.21854571	     33.99008965	      2.97694753	     -7.49999987	     87.08219609	    -12.61329038	     11.18647000	     38.02775116	      0.66370946	     -5.20742353	    -11.64908438	     -7.49999987	     -5.36939420	     14.81630447	      7.98591770	     55.61259440	    -13.60101553	     77.63381896	    119.93228399	     97.29522641	     55.32981205	      5.30866912	     69.30940996	    104.01145271	    111.49930882
     10.56666670	    -30.85180878	     -2.71811789	      7.19638643	      1.53942960	      0.74367709	      0.09856665	     73.07102456	      2.53771965	     -4.59580351	     70.23665489	      1.22586088	     33.99438797	      2.89106925	     -7.49999987	     87.50958235	    -12.61741479	     11.12454719	     38.06366391	      0.66433626	     -5.53892518	    -11.38867430	     -7.49999987	     -5.70042625	     14.98810330	      8.07327291	     56.40576970	    -13.79623498	     77.30703286	    119.83703598	     97.31488365	     56.04422297	      5.64107681	     68.77738724	    104.10146726	    111.46485549
